<?xml version="1.0" encoding="utf-8"?>
<!-- Generator: Adobe Illustrator 25.4.1, SVG Export Plug-In . SVG Version: 6.00 Build 0)  -->
<svg version="1.1" id="Warstwa_1" xmlns="http://www.w3.org/2000/svg" xmlns:xlink="http://www.w3.org/1999/xlink" x="0px" y="0px"
	 viewBox="0 0 189.8 89.6" style="enable-background:new 0 0 189.8 89.6;" xml:space="preserve">
<style type="text/css">
	.st0{enable-background:new    ;}
	.st1{fill:#3F3F3F;}
</style>
<g class="st0">
	<path class="st1" d="M9,58.8c3.9,0,6.8,2.2,7.8,5.7h-4.4c-0.7-1.4-1.9-2.1-3.4-2.1c-2.5,0-4.1,1.8-4.1,4.7c0,2.9,1.7,4.7,4.1,4.7
		c1.5,0,2.8-0.7,3.4-2.1h4.4c-0.9,3.6-3.9,5.7-7.8,5.7c-4.8,0-8.2-3.4-8.2-8.3C0.8,62.3,4.2,58.8,9,58.8z"/>
	<path class="st1" d="M24.7,75.6c-3.8,0-6.7-2.6-6.7-6.7s3-6.7,6.8-6.7c3.8,0,6.8,2.6,6.8,6.7S28.5,75.6,24.7,75.6z M24.7,72.1
		c1.4,0,2.8-1.1,2.8-3.2c0-2.2-1.3-3.2-2.7-3.2c-1.4,0-2.7,1-2.7,3.2C22.1,71.1,23.3,72.1,24.7,72.1z"/>
	<path class="st1" d="M51.2,68.3c0-1.7-1-2.6-2.5-2.6s-2.5,0.9-2.5,2.6v7.1h-4v-7.1c0-1.7-1-2.6-2.5-2.6s-2.5,0.9-2.5,2.6v7.1h-4
		v-13h4V64c0.8-1.1,2.1-1.8,3.8-1.8c2,0,3.6,0.9,4.4,2.4c0.9-1.4,2.5-2.4,4.4-2.4c3.2,0,5.3,2.1,5.3,5.6v7.6h-4V68.3z"/>
	<path class="st1" d="M65.5,62.2c3.2,0,5.7,2.6,5.7,6.7s-2.5,6.7-5.7,6.7c-1.9,0-3.3-0.9-4-2v8h-4V62.4h4v1.8
		C62.2,63.1,63.6,62.2,65.5,62.2z M64.3,65.7c-1.5,0-2.9,1.1-2.9,3.2s1.4,3.2,2.9,3.2c1.5,0,2.9-1.2,2.9-3.2S65.8,65.7,64.3,65.7z"
		/>
	<path class="st1" d="M77.8,62.2c1.9,0,3.3,0.9,4,2v-1.8h4v13h-4v-1.8c-0.7,1.1-2.1,2-4,2c-3.2,0-5.7-2.6-5.7-6.7
		S74.6,62.2,77.8,62.2z M79,65.7c-1.5,0-2.9,1.1-2.9,3.2s1.4,3.2,2.9,3.2c1.5,0,2.9-1.1,2.9-3.2S80.5,65.7,79,65.7z"/>
	<path class="st1" d="M97.2,68.3c0-1.8-1-2.8-2.5-2.8c-1.5,0-2.5,1-2.5,2.8v7.1h-4v-13h4v1.7c0.8-1.1,2.2-1.9,3.9-1.9
		c3,0,5,2.1,5,5.6v7.6h-4V68.3z"/>
	<path class="st1" d="M112.5,62.4h4.3l-8.2,19.2h-4.3l3-6.6l-5.3-12.6h4.5l3,8.2L112.5,62.4z"/>
	<path class="st1" d="M131.3,68.3c0-1.8-1-2.8-2.5-2.8c-1.5,0-2.5,1-2.5,2.8v7.1h-4v-13h4v1.7c0.8-1.1,2.2-1.9,3.9-1.9
		c3,0,5,2.1,5,5.6v7.6h-4V68.3z"/>
	<path class="st1" d="M142.5,62.2c1.9,0,3.3,0.9,4,2v-1.8h4v13h-4v-1.8c-0.7,1.1-2.1,2-4,2c-3.2,0-5.7-2.6-5.7-6.7
		S139.3,62.2,142.5,62.2z M143.7,65.7c-1.5,0-2.9,1.1-2.9,3.2s1.4,3.2,2.9,3.2c1.5,0,2.8-1.1,2.8-3.2S145.2,65.7,143.7,65.7z"/>
	<path class="st1" d="M170.9,68.3c0-1.7-1-2.6-2.5-2.6c-1.5,0-2.5,0.9-2.5,2.6v7.1h-4v-7.1c0-1.7-1-2.6-2.5-2.6
		c-1.5,0-2.5,0.9-2.5,2.6v7.1h-4v-13h4V64c0.8-1.1,2.1-1.8,3.8-1.8c2,0,3.6,0.9,4.4,2.4c0.9-1.4,2.5-2.4,4.4-2.4
		c3.2,0,5.3,2.1,5.3,5.6v7.6h-4V68.3z"/>
	<path class="st1" d="M183,75.6c-3.8,0-6.6-2.6-6.6-6.7s2.7-6.7,6.6-6.7c3.8,0,6.5,2.5,6.5,6.5c0,0.4,0,0.8-0.1,1.2h-9
		c0.1,1.7,1.2,2.5,2.5,2.5c1.1,0,1.8-0.6,2.1-1.3h4.3C188.6,73.6,186.3,75.6,183,75.6z M180.5,67.6h5c0-1.4-1.1-2.2-2.5-2.2
		C181.7,65.4,180.7,66.2,180.5,67.6z"/>
</g>
<path class="st1" d="M113.6,8.7L104.9,0H74.8v30.1l0,0l8.7,8.7h30.1L113.6,8.7L113.6,8.7L113.6,8.7z M109.9,8.7h-5v-5L109.9,8.7z
	 M77.4,2.6h24.9v6.1H83.5v18.8h-6.1V2.6z M102.3,27.5H86.1V11.3h16.2V27.5z M83.5,30.1v5l-5-5H83.5z M86.1,30.1h18.8V11.3h6.1v24.9
	H86.1V30.1z"/>
</svg>
