<?xml version="1.0" encoding="utf-8"?>
<!-- Generator: Adobe Illustrator 25.4.1, SVG Export Plug-In . SVG Version: 6.00 Build 0)  -->
<svg version="1.1" id="Warstwa_1" xmlns="http://www.w3.org/2000/svg" xmlns:xlink="http://www.w3.org/1999/xlink" x="0px" y="0px"
	 viewBox="0 0 189.8 89.6" style="enable-background:new 0 0 189.8 89.6;" xml:space="preserve">
<style type="text/css">
	.st0{enable-background:new    ;}
	.st1{fill:#FCFCFC;}
</style>
<g class="st0">
	<path class="st1" d="M8.8,58.9c3.8,0,6.7,2.2,7.6,5.7h-4.3c-0.7-1.4-1.9-2.1-3.3-2.1c-2.4,0-4,1.8-4,4.7c0,2.9,1.6,4.7,4,4.7
		c1.5,0,2.7-0.7,3.3-2.1h4.3c-0.9,3.6-3.8,5.7-7.6,5.7c-4.7,0-8-3.4-8-8.3C0.7,62.3,4.1,58.9,8.8,58.9z"/>
	<path class="st1" d="M24.5,75.6c-3.7,0-6.5-2.6-6.5-6.7s2.9-6.7,6.6-6.7c3.7,0,6.6,2.6,6.6,6.7S28.2,75.6,24.5,75.6z M24.5,72.2
		c1.4,0,2.7-1.1,2.7-3.2c0-2.2-1.3-3.2-2.6-3.2c-1.4,0-2.6,1-2.6,3.2C21.9,71.1,23.1,72.2,24.5,72.2z"/>
	<path class="st1" d="M50.6,68.4c0-1.7-1-2.6-2.4-2.6s-2.4,0.9-2.4,2.6v7.1h-3.9v-7.1c0-1.7-1-2.6-2.4-2.6S37,66.7,37,68.4v7.1h-3.9
		v-13H37V64c0.7-1.1,2-1.8,3.7-1.8c1.9,0,3.5,0.9,4.3,2.4c0.8-1.4,2.4-2.4,4.3-2.4c3.1,0,5.2,2.1,5.2,5.6v7.6h-3.9V68.4z"/>
	<path class="st1" d="M65,62.2c3.1,0,5.6,2.6,5.6,6.7s-2.5,6.7-5.6,6.7c-1.9,0-3.2-0.9-3.9-2v8h-3.9V62.4h3.9v1.8
		C61.8,63.1,63.1,62.2,65,62.2z M63.8,65.7c-1.5,0-2.8,1.1-2.8,3.2s1.3,3.2,2.8,3.2c1.5,0,2.8-1.2,2.8-3.2S65.3,65.7,63.8,65.7z"/>
	<path class="st1" d="M77.4,62.2c1.9,0,3.2,0.9,3.9,2v-1.8h3.9v13h-3.9v-1.8c-0.7,1.1-2,2-3.9,2c-3.1,0-5.6-2.6-5.6-6.7
		S74.3,62.2,77.4,62.2z M78.6,65.7c-1.5,0-2.8,1.1-2.8,3.2s1.3,3.2,2.8,3.2c1.5,0,2.8-1.1,2.8-3.2S80,65.7,78.6,65.7z"/>
	<path class="st1" d="M96.8,68.4c0-1.8-1-2.8-2.4-2.8s-2.4,1-2.4,2.8v7.1H88v-13h3.9v1.7c0.8-1.1,2.1-1.9,3.8-1.9
		c2.9,0,4.9,2.1,4.9,5.6v7.6h-3.9V68.4z"/>
	<path class="st1" d="M112.1,62.4h4.2l-7.9,19.2h-4.2L107,75l-5.2-12.6h4.3l2.9,8.2L112.1,62.4z"/>
	<path class="st1" d="M131.2,68.4c0-1.8-1-2.8-2.4-2.8s-2.4,1-2.4,2.8v7.1h-3.9v-13h3.9v1.7c0.8-1.1,2.1-1.9,3.8-1.9
		c2.9,0,4.9,2.1,4.9,5.6v7.6h-3.9V68.4z"/>
	<path class="st1" d="M142.6,62.2c1.9,0,3.2,0.9,3.9,2v-1.8h3.9v13h-3.9v-1.8c-0.7,1.1-2,2-3.9,2c-3.1,0-5.6-2.6-5.6-6.7
		S139.5,62.2,142.6,62.2z M143.7,65.7c-1.5,0-2.8,1.1-2.8,3.2s1.3,3.2,2.8,3.2c1.5,0,2.8-1.1,2.8-3.2S145.2,65.7,143.7,65.7z"/>
	<path class="st1" d="M170.6,68.4c0-1.7-1-2.6-2.4-2.6s-2.4,0.9-2.4,2.6v7.1h-3.9v-7.1c0-1.7-1-2.6-2.4-2.6s-2.4,0.9-2.4,2.6v7.1
		h-3.9v-13h3.9V64c0.8-1.1,2-1.8,3.7-1.8c1.9,0,3.5,0.9,4.3,2.4c0.8-1.4,2.4-2.4,4.3-2.4c3.1,0,5.2,2.1,5.2,5.6v7.6h-3.9V68.4z"/>
	<path class="st1" d="M182.9,75.6c-3.7,0-6.4-2.6-6.4-6.7s2.6-6.7,6.4-6.7c3.7,0,6.3,2.5,6.3,6.5c0,0.4,0,0.8-0.1,1.2h-8.8
		c0.1,1.7,1.2,2.5,2.4,2.5c1.1,0,1.7-0.6,2-1.3h4.1C188.3,73.7,186,75.6,182.9,75.6z M180.3,67.7h4.9c0-1.4-1.1-2.2-2.4-2.2
		C181.5,65.4,180.6,66.2,180.3,67.7z"/>
</g>
<path class="st1" d="M110.4,8.7L101.9,0H72.7v30.1l0,0l8.5,8.7h29.2L110.4,8.7L110.4,8.7L110.4,8.7z M106.8,8.7h-4.9v-5L106.8,8.7z
	 M75.2,2.6h24.2v6.1H81.1v18.8h-5.9V2.6z M99.4,27.5H83.7V11.3h15.7C99.4,11.3,99.4,27.5,99.4,27.5z M81.1,30.1v5l-4.9-5
	C76.3,30.1,81.1,30.1,81.1,30.1z M83.7,30.1H102V11.3h5.9v24.9H83.7V30.1z"/>
</svg>
